{
  "asset": {
    "generator": "Khronos glTF Blender I/O v3.6.27",
    "version": "2.0"
  },
  "extensionsUsed": [
    "KHR_materials_specular"
  ],
  "scene": 0,
  "scenes": [
    {
      "name": "Scene",
      "nodes": [
        0
      ]
    }
  ],
  "nodes": [
    {
      "mesh": 0,
      "name": "cone1_obj.001",
      "rotation": [
        0.7071068286895752,
        0,
        0,
        0.7071068286895752
      ],
      "scale": [
        0.04383903741836548,
        0.04383903741836548,
        0.04383903741836548
      ]
    }
  ],
  "materials": [
    {
      "doubleSided": true,
      "extensions": {
        "KHR_materials_specular": {
          "specularColorFactor": [
            0.39599999785423273,
            0.39599999785423273,
            0.39599999785423273
          ]
        }
      },
      "name": "cone1.001",
      "normalTexture": {
        "index": 0
      },
      "pbrMetallicRoughness": {
        "baseColorTexture": {
          "index": 1
        },
        "metallicFactor": 0,
        "roughnessFactor": 0.8156090974807739
      }
    }
  ],
  "meshes": [
    {
      "name": "cone1_obj.001",
      "primitives": [
        {
          "attributes": {
            "POSITION": 0,
            "NORMAL": 1,
            "TEXCOORD_0": 2
          },
          "indices": 3,
          "material": 0
        }
      ]
    }
  ],
  "textures": [
    {
      "sampler": 0,
      "source": 0
    },
    {
      "sampler": 0,
      "source": 0
    }
  ],
  "images": [
    {
      "name": "cone1",
      "uri": "traffic_cone_img0.jpg"
    }
  ],
  "accessors": [
    {
      "bufferView": 0,
      "componentType": 5126,
      "count": 301,
      "max": [
        16.419099807739258,
        16.007400512695312,
        18.41230010986328
      ],
      "min": [
        -16.419099807739258,
        -16.007400512695312,
        -18.41230010986328
      ],
      "type": "VEC3"
    },
    {
      "bufferView": 1,
      "componentType": 5126,
      "count": 301,
      "type": "VEC3"
    },
    {
      "bufferView": 2,
      "componentType": 5126,
      "count": 301,
      "type": "VEC2"
    },
    {
      "bufferView": 3,
      "componentType": 5123,
      "count": 1260,
      "type": "SCALAR"
    }
  ],
  "bufferViews": [
    {
      "buffer": 0,
      "byteLength": 3612,
      "byteOffset": 0,
      "target": 34962
    },
    {
      "buffer": 0,
      "byteLength": 3612,
      "byteOffset": 3612,
      "target": 34962
    },
    {
      "buffer": 0,
      "byteLength": 2408,
      "byteOffset": 7224,
      "target": 34962
    },
    {
      "buffer": 0,
      "byteLength": 2520,
      "byteOffset": 9632,
      "target": 34963
    }
  ],
  "samplers": [
    {
      "magFilter": 9729,
      "minFilter": 9987
    }
  ],
  "buffers": [
    {
      "uri": "traffic_cone_data.bin",
      "byteLength": 12152
    }
  ]
}